<svg width="46" height="45" viewBox="0 0 46 45" fill="none" xmlns="http://www.w3.org/2000/svg">
<rect x="0.399414" width="45.31" height="45" rx="22.5" fill="black"/>
<path d="M26.677 15.0587C26.7013 14.9803 26.7098 14.8978 26.702 14.8161C26.6942 14.7344 26.6703 14.655 26.6316 14.5824C26.5929 14.5099 26.5402 14.4456 26.4765 14.3933C26.4128 14.341 26.3394 14.3016 26.2604 14.2775C26.1814 14.2534 26.0984 14.2449 26.0161 14.2527C25.9338 14.2604 25.8538 14.2841 25.7808 14.3226C25.7077 14.361 25.643 14.4133 25.5903 14.4766C25.5377 14.5398 25.498 14.6128 25.4737 14.6912L20.4393 30.9412C20.3902 31.0997 20.4066 31.271 20.4847 31.4176C20.5628 31.5641 20.6963 31.6738 20.8559 31.7225C21.0155 31.7712 21.188 31.755 21.3355 31.6774C21.483 31.5998 21.5935 31.4672 21.6425 31.3087L26.677 15.0587ZM19.5985 18.1825C19.6572 18.2406 19.7037 18.3095 19.7354 18.3855C19.7671 18.4614 19.7834 18.5428 19.7834 18.625C19.7834 18.7072 19.7671 18.7886 19.7354 18.8645C19.7037 18.9405 19.6572 19.0094 19.5985 19.0675L15.6377 23L19.5985 26.9325C19.7167 27.0499 19.7831 27.209 19.7831 27.375C19.7831 27.541 19.7167 27.7001 19.5985 27.8175C19.4804 27.9349 19.3201 28.0008 19.153 28.0008C18.9859 28.0008 18.8256 27.9349 18.7075 27.8175L14.3023 23.4425C14.2437 23.3844 14.1972 23.3155 14.1655 23.2395C14.1338 23.1636 14.1174 23.0822 14.1174 23C14.1174 22.9178 14.1338 22.8364 14.1655 22.7605C14.1972 22.6845 14.2437 22.6156 14.3023 22.5575L18.7075 18.1825C18.7659 18.1243 18.8354 18.0781 18.9118 18.0466C18.9883 18.0151 19.0702 17.9989 19.153 17.9989C19.2358 17.9989 19.3177 18.0151 19.3942 18.0466C19.4706 18.0781 19.5401 18.1243 19.5985 18.1825ZM27.5177 18.1825C27.4591 18.2406 27.4126 18.3095 27.3809 18.3855C27.3492 18.4614 27.3328 18.5428 27.3328 18.625C27.3328 18.7072 27.3492 18.7886 27.3809 18.8645C27.4126 18.9405 27.4591 19.0094 27.5177 19.0675L31.4786 23L27.5177 26.9325C27.4592 26.9906 27.4128 27.0596 27.3811 27.1355C27.3495 27.2114 27.3332 27.2928 27.3332 27.375C27.3332 27.4572 27.3495 27.5386 27.3811 27.6145C27.4128 27.6904 27.4592 27.7594 27.5177 27.8175C27.5762 27.8756 27.6457 27.9217 27.7221 27.9531C27.7986 27.9846 27.8805 28.0008 27.9633 28.0008C28.046 28.0008 28.128 27.9846 28.2044 27.9531C28.2809 27.9217 28.3503 27.8756 28.4088 27.8175L32.814 23.4425C32.8726 23.3844 32.9191 23.3155 32.9508 23.2395C32.9825 23.1636 32.9988 23.0822 32.9988 23C32.9988 22.9178 32.9825 22.8364 32.9508 22.7605C32.9191 22.6845 32.8726 22.6156 32.814 22.5575L28.4088 18.1825C28.3504 18.1243 28.2809 18.0781 28.2045 18.0466C28.128 18.0151 28.0461 17.9989 27.9633 17.9989C27.8805 17.9989 27.7985 18.0151 27.7221 18.0466C27.6456 18.0781 27.5762 18.1243 27.5177 18.1825Z" fill="white"/>
</svg>
