<svg width="46" height="45" viewBox="0 0 46 45" fill="none" xmlns="http://www.w3.org/2000/svg">
<rect width="45.31" height="45" rx="22.5" fill="black"/>
<path d="M31.8293 22.2258C29.8499 18.5916 26.3787 16.3925 22.5374 16.3925C18.6961 16.3925 15.219 18.5916 13.2572 22.2258L13.0928 22.5L13.2455 22.78C15.2249 26.4141 18.6961 28.6133 22.5374 28.6133C26.3787 28.6133 29.8558 26.4433 31.8293 22.78L31.982 22.5L31.8293 22.2258ZM22.5374 27.4175C19.2306 27.4175 16.194 25.5858 14.4319 22.5C16.194 19.4141 19.2306 17.5825 22.5374 17.5825C25.8442 17.5825 28.8456 19.42 30.637 22.5C28.8456 25.5858 25.8383 27.4175 22.5374 27.4175Z" fill="white"/>
<path d="M22.7078 18.5159C21.9115 18.5216 21.1347 18.7617 20.4756 19.2056C19.8165 19.6496 19.3046 20.2776 19.0047 21.0103C18.7047 21.743 18.6302 22.5476 18.7904 23.3224C18.9506 24.0972 19.3384 24.8074 19.9048 25.3634C20.4712 25.9195 21.1908 26.2963 21.9727 26.4464C22.7547 26.5965 23.5639 26.513 24.2981 26.2066C25.0323 25.9002 25.6586 25.3846 26.0979 24.7249C26.5373 24.0652 26.7699 23.291 26.7664 22.5C26.7641 21.9735 26.6572 21.4527 26.4519 20.9673C26.2465 20.4819 25.9467 20.0415 25.5697 19.6714C25.1927 19.3013 24.7458 19.0087 24.2547 18.8104C23.7636 18.6121 23.238 18.512 22.7078 18.5159ZM22.7078 25.3525C22.1453 25.3468 21.597 25.1761 21.1319 24.8618C20.6667 24.5476 20.3054 24.1039 20.0933 23.5864C19.8813 23.0689 19.8279 22.5007 19.9399 21.9532C20.0519 21.4056 20.3243 20.9032 20.7229 20.5089C21.1215 20.1147 21.6285 19.8462 22.1803 19.7372C22.732 19.6281 23.3039 19.6835 23.8241 19.8962C24.3443 20.1089 24.7896 20.4696 25.1041 20.9328C25.4186 21.3961 25.5882 21.9413 25.5917 22.5C25.5933 22.876 25.5197 23.2486 25.3752 23.5962C25.2307 23.9437 25.0181 24.2593 24.7498 24.5247C24.4816 24.79 24.1629 24.9998 23.8124 25.1419C23.4619 25.284 23.0864 25.3556 22.7078 25.3525Z" fill="white"/>
</svg>
