<svg width="55" height="55" viewBox="0 0 55 55" fill="none" xmlns="http://www.w3.org/2000/svg">
<rect width="55" height="55" rx="27.5" fill="white"/>
<path d="M27.9875 13.3843C20.2594 13.3812 14 19.6374 14 27.3593C14 33.4655 17.9156 38.6561 23.3688 40.5624C24.1031 40.7468 23.9906 40.2249 23.9906 39.8686V37.4468C19.75 37.9436 19.5781 35.1374 19.2938 34.6686C18.7188 33.6874 17.3594 33.4374 17.7656 32.9686C18.7313 32.4718 19.7156 33.0936 20.8563 34.778C21.6813 35.9999 23.2906 35.7936 24.1063 35.5905C24.2844 34.8561 24.6656 34.1999 25.1906 33.6905C20.7969 32.903 18.9656 30.2218 18.9656 27.0343C18.9656 25.4874 19.475 24.0655 20.475 22.9187C19.8375 21.028 20.5344 19.4093 20.6281 19.1687C22.4438 19.0062 24.3313 20.4687 24.4781 20.5843C25.5094 20.3062 26.6875 20.1593 28.0063 20.1593C29.3313 20.1593 30.5125 20.3124 31.5531 20.5937C31.9063 20.3249 33.6563 19.0687 35.3438 19.2218C35.4344 19.4624 36.1156 21.0437 35.5156 22.9093C36.5281 24.0593 37.0438 25.4937 37.0438 27.0437C37.0438 30.2374 35.2 32.9218 30.7938 33.6968C31.1712 34.0679 31.4708 34.5106 31.6753 34.9988C31.8797 35.4871 31.9848 36.0112 31.9844 36.5405V40.0561C32.0094 40.3374 31.9844 40.6155 32.4531 40.6155C37.9875 38.7499 41.9719 33.5218 41.9719 27.3624C41.9719 19.6374 35.7094 13.3843 27.9875 13.3843Z" fill="black"/>
</svg>
