<svg width="55" height="55" viewBox="0 0 55 55" fill="none" xmlns="http://www.w3.org/2000/svg">
<rect width="55" height="55" rx="27.5" fill="white"/>
<path d="M27.5737 32.5203C26.962 33.4818 26.3751 34.4225 25.0599 35.3363C24.3564 35.8294 22.7371 36.7929 20.4355 36.7929C16.0443 36.7929 12.5 33.6004 12.5 27.9876C12.5 23.0823 15.8341 19.2073 20.5291 19.2073C22.4313 19.2073 24.1213 19.8648 25.3658 20.8513C26.5167 21.7669 27.0557 22.6828 27.526 23.5048L24.2397 25.1468C24.0046 24.6077 23.7216 24.0438 22.9952 23.434C22.1962 22.7993 21.3989 22.612 20.7164 22.612C18.0401 22.612 16.6312 25.101 16.6312 27.871C16.6312 31.5109 18.4874 33.3175 20.7164 33.3175C22.8766 33.3175 23.7464 31.8148 24.3086 30.8533L27.5737 32.5204V32.5203ZM39.0859 19.7235H43.5L37.7477 36.2997H33.5229L27.8414 19.7235H32.2554L35.6831 31.511L39.0859 19.7235Z" fill="black"/>
</svg>
