<svg width="55" height="55" viewBox="0 0 55 55" fill="none" xmlns="http://www.w3.org/2000/svg">
<rect width="55" height="55" rx="27.5" fill="white"/>
<g clip-path="url(#clip0_3569_1347)">
<path d="M20.268 40H14.463V21.306H20.268V40ZM17.362 18.756C15.506 18.756 14 17.218 14 15.362C14 14.4703 14.3542 13.6152 14.9847 12.9847C15.6152 12.3542 16.4703 12 17.362 12C18.2537 12 19.1088 12.3542 19.7393 12.9847C20.3698 13.6152 20.724 14.4703 20.724 15.362C20.724 17.218 19.218 18.756 17.362 18.756ZM41.994 40H36.202V30.9C36.202 28.731 36.158 25.95 33.184 25.95C30.166 25.95 29.703 28.306 29.703 30.744V40H23.904V21.306H29.471V23.856H29.552C30.327 22.387 32.22 20.837 35.044 20.837C40.919 20.837 41.999 24.706 41.999 29.731V40H41.994Z" fill="black"/>
</g>
<defs>
<clipPath id="clip0_3569_1347">
<rect width="32" height="32" fill="white" transform="translate(12 12)"/>
</clipPath>
</defs>
</svg>
